<svg xmlns="http://www.w3.org/2000/svg" xmlns:xlink="http://www.w3.org/1999/xlink" fill="none" version="1.1" width="18.8797607421875" height="18.8798828125" viewBox="0 0 18.8797607421875 18.8798828125"><g><g><path d="M0.96929216109375,0.96935319625C0.67690611109375,1.26173925625,0.67690608109375,1.73579070625,0.96929216109375,2.0281768062500003L16.85164637109375,17.91053040625C17.14403137109375,18.20291540625,17.61808437109375,18.20291540625,17.91046937109375,17.91053040625C18.20285437109375,17.61814540625,18.20285437109375,17.14409240625,17.91046937109375,16.85170740625L2.0281157710937503,0.96935319625C1.73572967109375,0.67696711625,1.26167822109375,0.67696714625,0.96929216109375,0.96935319625Z" fill="#36373B" fill-opacity="1"/><path d="M0.43896210193375,2.55850700625L16.32131637109375,18.44086040625Q16.76027337109375,18.87981840625,17.38105737109375,18.87981840625Q18.00184237109375,18.87981840625,18.44079937109375,18.44086040625Q18.87975737109375,18.00190340625,18.87975737109375,17.38111840625Q18.87975737109375,16.76033440625,18.44079937109375,16.32137740625L2.55844597109375,0.4390231967Q2.11948647109375,0.0000636562499999882,1.49870397109375,0.0000636562499999882Q0.87792158109375,0.0000636562499999882,0.43896198272375,0.43902313709Q0.000002591093750003992,0.87798255625,0.000002591093750003992,1.49876500625Q0.000002561093750019783,2.11954750625,0.43896210193375,2.55850700625Z" fill-rule="evenodd" fill="#36373B" fill-opacity="1"/></g><g transform="matrix(1,0,0,-1,0,36.8798828125)"><path d="M0.96929216109375,18.96935319625C0.67690611109375,19.26173925625,0.67690608109375,19.73579070625,0.96929216109375,20.02817680625L16.85164637109375,35.910530406250004C17.14403137109375,36.20291540625,17.61808437109375,36.20291540625,17.91046937109375,35.910530406250004C18.20285437109375,35.61814540625,18.20285437109375,35.144092406249996,17.91046937109375,34.85170740625L2.0281157710937503,18.96935319625C1.73572967109375,18.67696711625,1.26167822109375,18.67696714625,0.96929216109375,18.96935319625Z" fill="#36373B" fill-opacity="1"/><path d="M0.43896210193375,20.55850700625L16.32131637109375,36.440860406249996Q16.76027337109375,36.879818406249996,17.38105737109375,36.879818406249996Q18.00184237109375,36.879818406249996,18.44079937109375,36.440860406249996Q18.87975737109375,36.00190340625,18.87975737109375,35.381118406249996Q18.87975737109375,34.760334406249996,18.44079937109375,34.32137740625L2.55844597109375,18.4390231967Q2.11948647109375,18.00006365625,1.49870397109375,18.00006365625Q0.87792158109375,18.00006365625,0.43896198272375,18.43902313709Q0.000002591093750003992,18.87798255625,0.000002591093750003992,19.49876500625Q0.000002561093750019783,20.11954750625,0.43896210193375,20.55850700625Z" fill-rule="evenodd" fill="#36373B" fill-opacity="1"/></g></g></svg>