<svg xmlns="http://www.w3.org/2000/svg" xmlns:xlink="http://www.w3.org/1999/xlink" fill="none" version="1.1" width="10.5" height="10.5" viewBox="0 0 10.5 10.5"><g><path d="M0.75,9C0.75,9.4142132,1.0857864,9.75,1.5,9.75L6.75,9.75Q9.75,9.75,9.75,6.75L9.75,1.5C9.75,1.0857864,9.4142132,0.75,9,0.75C8.585786299999999,0.75,8.25,1.0857864,8.25,1.5L8.25,4.75C8.25,7.75,7.75,8.25,4.75,8.25L1.5,8.25C1.0857864,8.25,0.75,8.585786299999999,0.75,9Z" fill="#36373B" fill-opacity="1"/><path d="M10.0606594,0.43933976Q9.6213198,0,9,0Q8.3786798,-1.200000000478596e-7,7.9393401,0.43933958Q7.5,0.87867925,7.5,1.5L7.4999995,4.7500005Q7.4999995,6.6893396,7.0946693,7.0946698Q6.6893392,7.5,4.75,7.5L1.5,7.5Q0.87867925,7.5,0.43933961,7.9393401Q0,8.3786798,-1.200000000478596e-7,9.000001Q-1.200000000478596e-7,9.6213207,0.43933985,10.0606613Q0.87867938,10.5,1.5,10.5L6.7499986,10.5Q8.560659399999999,10.5,9.5303297,9.5303307Q10.5,8.5606604,10.5,6.75L10.5,1.5Q10.5,0.87868015,10.0606594,0.43933976ZM8.1553297,8.1553302Q8.999999,7.3106608,8.999999,4.7500005L9,6.75Q9,7.9393396,8.4696693,8.4696703Q7.9393387,9,6.7499986,9L4.75,9Q7.3106608,9,8.1553297,8.1553302Z" fill-rule="evenodd" fill="#36373B" fill-opacity="1"/></g></svg>