<svg xmlns="http://www.w3.org/2000/svg" xmlns:xlink="http://www.w3.org/1999/xlink" fill="none" version="1.1" width="24" height="24" viewBox="0 0 24 24"><defs><radialGradient cx="0" cy="0" r="1" gradientUnits="userSpaceOnUse" id="master_svg0_3_6889" gradientTransform="translate(9.569285707172703 7.655092434682487) rotate(53.70071057463019) scale(8.07125056969115 8.211443362027909)"><stop offset="9.312155097723007%" stop-color="#D8D8D8" stop-opacity="0"/><stop offset="74.82969760894775%" stop-color="#D8D8D8" stop-opacity="1"/><stop offset="97.31925129890442%" stop-color="#D8D8D8" stop-opacity="1"/></radialGradient><linearGradient x1="0.4499713182449341" y1="0.20025809109210968" x2="0.1265958243027312" y2="0.19993204075753113" id="master_svg1_3_2520"><stop offset="0%" stop-color="#D8D8D8" stop-opacity="1"/><stop offset="100%" stop-color="#D8D8D8" stop-opacity="0"/></linearGradient></defs><g><g><path d="M8.8126220703125,14.16000081906128L11.368985670312501,14.16000081906128C17.1735563703125,14.16000081906128,19.8823610703125,11.496003119061278,19.8823610703125,6.744002819061279L16.4699716703125,6.744002819061279C16.4699716703125,8.86800291906128,15.4497713703125,10.60800341906128,11.368985670312501,10.60800341906128L8.8126220703125,10.60800341906128L8.8126220703125,14.16000081906128Z" fill="url(#master_svg0_3_6889)" fill-opacity="1"/></g><g><path d="M2.75,6.779999732971191L16.012526,23.999998732971193L20.75,23.999998732971193L7.4874759,6.779999732971191L2.75,6.779999732971191Z" fill="url(#master_svg1_3_2520)" fill-opacity="1"/></g><g><path d="M3.172119140625,0C4.274398940625,1.3680001,4.966263640625,2.5200002,4.966265040625,4.7400002L4.966266040625,24L8.484193340625,24L8.484193340625,3.3480005L12.365643540625,3.3480005C14.974769140625,3.3480005,16.469882140625,4.6200004,16.469882140625,6.7440028L19.882273140625,6.7440028C19.882273140625,1.992,16.880309140625002,0,12.365643540625,0L3.172119140625,0Z" fill="#D8D8D8" fill-opacity="1"/></g><g><path d="" fill="#D8D8D8" fill-opacity="1"/></g></g></svg>